<svg width="50" height="50" viewBox="0 0 50 50" fill="none" xmlns="http://www.w3.org/2000/svg">
<path d="M11.4739 2.73562e-05H38.5267C40.0344 -0.00326849 41.5279 0.291277 42.9215 0.866727C44.315 1.44218 45.5812 2.28719 46.6473 3.3533C47.7134 4.41941 48.5585 5.6856 49.1339 7.07916C49.7094 8.47272 50.0039 9.96623 50.0006 11.4739V38.5267C50.0039 40.0344 49.7094 41.5279 49.1339 42.9215C48.5585 44.3151 47.7134 45.5812 46.6473 46.6474C45.5812 47.7135 44.315 48.5585 42.9215 49.1339C41.5279 49.7094 40.0344 50.0039 38.5267 50.0006H11.4739C9.96622 50.0039 8.47272 49.7094 7.07916 49.1339C5.68559 48.5585 4.41941 47.7135 3.3533 46.6474C2.2872 45.5812 1.44216 44.3151 0.866713 42.9215C0.291263 41.5279 -0.00326849 40.0344 2.73575e-05 38.5267V11.4739C-0.00326849 9.96623 0.291263 8.47272 0.866713 7.07916C1.44216 5.6856 2.2872 4.41941 3.3533 3.3533C4.41941 2.28719 5.68559 1.44218 7.07916 0.866727C8.47272 0.291277 9.96622 -0.00326849 11.4739 2.73562e-05Z" fill="#3E77E7"/>
<path d="M10.955 14.219C10.6917 14.219 10.4434 14.2645 10.2084 14.3579L14.9134 19.2018L19.6706 24.1323L19.7573 24.2368L19.8962 24.3757L20.035 24.5145L20.3128 24.8095L24.3928 28.9934C24.4606 29.0357 24.6578 29.2179 24.8117 29.2951C25.01 29.394 25.2245 29.4857 25.4456 29.4935C25.6845 29.5018 25.9284 29.4334 26.1434 29.329C26.3045 29.2507 26.3762 29.1385 26.5628 28.994L31.285 24.1157L36.0595 19.2023L40.6601 14.4629C40.3616 14.3014 40.0272 14.2177 39.6878 14.2195H10.955V14.219ZM9.51393 14.809C9.01226 15.2846 8.69781 15.999 8.69781 16.8057V32.7085C8.69781 33.3612 8.90726 33.9546 9.25337 34.4096L9.91282 33.7846L14.8262 29.0101L19.1839 24.7912L19.0973 24.6873L14.3228 19.774L9.54837 14.8435L9.51393 14.809ZM41.2851 14.9657L36.6323 19.7746L31.875 24.6879L31.7884 24.7746L36.3195 29.1668L41.2328 33.9412L41.5278 34.219C41.7923 33.7946 41.9445 33.2718 41.9445 32.7085V16.8057C41.9445 16.0868 41.6956 15.4345 41.2851 14.9657ZM19.7395 25.3646L15.3995 29.5835L10.4689 34.3579L9.84393 34.9657C10.1734 35.1779 10.5484 35.3129 10.955 35.3129H39.6878C40.1767 35.3129 40.62 35.1251 40.99 34.8268L40.6778 34.5146L35.7473 29.7401L31.2162 25.3651L27.1362 29.5662C26.9156 29.7129 26.7678 29.8751 26.5523 29.9746C26.205 30.1351 25.825 30.2707 25.4428 30.2651C25.0595 30.259 24.6834 30.109 24.3395 29.9401C24.1667 29.8551 24.0745 29.7707 23.8723 29.6012L19.7395 25.3646Z" fill="#141414"/>
</svg>
