<svg width="50" height="50" viewBox="0 0 50 50" fill="none" xmlns="http://www.w3.org/2000/svg">
<path d="M12.6787 49.8232C9.70517 49.6879 8.08987 49.1931 7.01548 48.774C5.59188 48.2198 4.57693 47.56 3.50849 46.493C2.44004 45.426 1.77876 44.4111 1.22745 42.9875C0.808393 41.9131 0.31355 40.2978 0.178322 37.3243C0.0297203 34.11 0 33.1456 0 25.0022C0 16.8589 0.0326924 15.8959 0.176836 12.6787C0.312063 9.70517 0.809879 8.09285 1.22596 7.01548C1.78025 5.59188 2.44153 4.57693 3.507 3.507C4.57396 2.44004 5.58891 1.77728 7.014 1.22596C8.08839 0.806907 9.70369 0.312063 12.6772 0.176836C15.8929 0.0297203 16.8589 0 24.9993 0C33.1426 0 34.1056 0.0326924 37.3228 0.176836C40.2963 0.312063 41.9086 0.809879 42.986 1.22596C44.4096 1.77728 45.4246 2.44004 46.493 3.507C47.5614 4.57396 48.2198 5.59039 48.774 7.014C49.1931 8.08839 49.6879 9.70369 49.8232 12.6772C49.9703 15.8944 50 16.8574 50 25.0007C50 33.1411 49.9703 34.1071 49.8232 37.3243C49.6879 40.2978 49.1901 41.9131 48.774 42.9875C48.2198 44.4111 47.56 45.426 46.493 46.493C45.426 47.56 44.4096 48.2198 42.986 48.774C41.9116 49.1931 40.2963 49.6879 37.3228 49.8232C34.1085 49.9703 33.1426 50 24.9993 50C16.8589 50 15.8929 49.9718 12.6787 49.8232Z" fill="#3E77E7"/>
<path d="M12.6787 49.8232C9.70517 49.6879 8.08987 49.1931 7.01548 48.774C5.59188 48.2198 4.57693 47.56 3.50849 46.493C2.44004 45.426 1.77876 44.4111 1.22745 42.9875C0.808393 41.9131 0.31355 40.2978 0.178322 37.3243C0.0297203 34.11 0 33.1456 0 25.0022C0 16.8589 0.0326924 15.8959 0.176836 12.6787C0.312063 9.70517 0.809879 8.09285 1.22596 7.01548C1.78025 5.59188 2.44153 4.57693 3.507 3.507C4.57396 2.44004 5.58891 1.77728 7.014 1.22596C8.08839 0.806907 9.70369 0.312063 12.6772 0.176836C15.8929 0.0297203 16.8589 0 24.9993 0C33.1426 0 34.1056 0.0326924 37.3228 0.176836C40.2963 0.312063 41.9086 0.809879 42.986 1.22596C44.4096 1.77728 45.4246 2.44004 46.493 3.507C47.5614 4.57396 48.2198 5.59039 48.774 7.014C49.1931 8.08839 49.6879 9.70369 49.8232 12.6772C49.9703 15.8944 50 16.8574 50 25.0007C50 33.1411 49.9703 34.1071 49.8232 37.3243C49.6879 40.2978 49.1901 41.9131 48.774 42.9875C48.2198 44.4111 47.56 45.426 46.493 46.493C45.426 47.56 44.4096 48.2198 42.986 48.774C41.9116 49.1931 40.2963 49.6879 37.3228 49.8232C34.1085 49.9703 33.1426 50 24.9993 50C16.8589 50 15.8929 49.9718 12.6787 49.8232Z" fill="#3E77E7"/>
<path d="M18.8613 25.1065C18.8613 21.687 21.6325 18.9142 25.052 18.9142C28.4715 18.9142 31.2442 21.687 31.2442 25.1065C31.2442 28.5259 28.4715 31.2987 25.052 31.2987C21.6325 31.2987 18.8613 28.5259 18.8613 25.1065ZM15.5139 25.1065C15.5139 30.3744 19.7841 34.6446 25.052 34.6446C30.3199 34.6446 34.5902 30.3744 34.5902 25.1065C34.5902 19.8385 30.3199 15.5683 25.052 15.5683C19.7841 15.5683 15.514 19.8382 15.514 25.1065H15.5139ZM32.7389 15.1901C32.7387 15.631 32.8693 16.062 33.114 16.4286C33.3588 16.7953 33.7068 17.0811 34.1141 17.25C34.5213 17.4189 34.9695 17.4632 35.4019 17.3774C35.8343 17.2915 36.2316 17.0794 36.5434 16.7678C36.8553 16.4562 37.0677 16.0591 37.1539 15.6267C37.2401 15.1944 37.1961 14.7462 37.0276 14.3388C36.859 13.9315 36.5735 13.5832 36.207 13.3381C35.8406 13.0931 35.4097 12.9622 34.9688 12.962H34.9679C34.377 12.9623 33.8103 13.1971 33.3924 13.6148C32.9744 14.0326 32.7394 14.5992 32.7389 15.1901ZM17.5476 40.2264C15.7366 40.1439 14.7523 39.8422 14.0981 39.5874C13.2309 39.2498 12.6121 38.8477 11.9615 38.198C11.311 37.5483 10.9083 36.9301 10.5721 36.0629C10.3171 35.409 10.0155 34.4244 9.93313 32.6134C9.84308 30.6554 9.8251 30.0672 9.8251 25.1068C9.8251 20.1463 9.84457 19.5598 9.93313 17.6001C10.0156 15.7891 10.3195 14.8064 10.5721 14.1507C10.9097 13.2834 11.3119 12.6646 11.9615 12.0141C12.6112 11.3635 13.2294 10.9608 14.0981 10.6246C14.752 10.3696 15.7366 10.068 17.5476 9.98564C19.5056 9.89559 20.0938 9.87761 25.052 9.87761C30.0103 9.87761 30.599 9.89678 32.5586 9.98594C34.3696 10.0684 35.3523 10.3723 36.0081 10.6249C36.8754 10.9611 37.4941 11.3647 38.1447 12.0144C38.7953 12.664 39.1965 13.2837 39.5341 14.1509C39.7891 14.8048 40.0908 15.7894 40.1731 17.6004C40.2632 19.56 40.2812 20.1466 40.2812 25.1071C40.2812 30.0675 40.2632 30.6541 40.1731 32.6137C40.0906 34.4247 39.7875 35.409 39.5341 36.0632C39.1965 36.9304 38.7944 37.5492 38.1447 38.1983C37.495 38.8474 36.8754 39.2501 36.0081 39.5877C35.3543 39.8427 34.3696 40.1443 32.5586 40.2267C30.6007 40.3167 30.0125 40.3347 25.052 40.3347C20.0915 40.3347 19.505 40.3167 17.5476 40.2267V40.2264ZM17.3938 6.64374C15.4164 6.73379 14.0652 7.04734 12.8851 7.50652C11.6637 7.98071 10.6284 8.61687 9.59462 9.64906C8.5608 10.6812 7.92627 11.7167 7.45208 12.9395C6.9929 14.1203 6.67935 15.4708 6.5893 17.4483C6.49776 19.4288 6.47681 20.062 6.47681 25.1065C6.47681 30.1509 6.49776 30.7841 6.5893 32.7646C6.67935 34.7422 6.9929 36.0926 7.45208 37.2734C7.92627 38.4947 8.56094 39.5321 9.59462 40.5639C10.6283 41.5956 11.6623 42.2309 12.8851 42.7064C14.0674 43.1656 15.4164 43.4791 17.3938 43.5692C19.3754 43.6592 20.0076 43.6817 25.052 43.6817C30.0964 43.6817 30.7296 43.6607 32.7102 43.5692C34.6878 43.4791 36.0381 43.1656 37.2189 42.7064C38.4403 42.2309 39.4756 41.596 40.5094 40.5639C41.5432 39.5317 42.1764 38.4947 42.6519 37.2734C43.1111 36.0926 43.4262 34.7421 43.5147 32.7646C43.6048 30.7826 43.6257 30.1509 43.6257 25.1065C43.6257 20.062 43.6048 19.4288 43.5147 17.4483C43.4247 15.4707 43.1111 14.1196 42.6519 12.9395C42.1764 11.7182 41.5416 10.6829 40.5094 9.64906C39.4772 8.61524 38.4403 7.98071 37.2204 7.50652C36.0381 7.04734 34.6876 6.73231 32.7117 6.64374C30.7308 6.55324 30.0979 6.53125 25.0542 6.53125C20.0106 6.53125 19.3762 6.5522 17.3946 6.64374" fill="#141414"/>
</svg>
