<svg width="400" height="425" viewBox="0 0 488 425" fill="none" xmlns="http://www.w3.org/2000/svg">
<g clip-path="url(#clip0_28_101)">
<path d="M440.045 221.148C440.108 273.695 419.797 324.22 383.382 362.103C381.186 364.401 378.932 366.645 376.618 368.832C373.093 372.186 369.449 375.409 365.687 378.503C330.492 407.499 286.556 423.792 240.966 424.756C239.447 424.79 237.922 424.807 236.391 424.807C200.032 424.807 154.301 405.387 112.8 378.503C109.366 376.279 105.963 374.003 102.591 371.676C101.014 370.598 99.4457 369.505 97.8846 368.397C81.8783 357.094 66.685 344.682 52.4169 331.252C43.0751 322.485 34.3149 313.118 26.1922 303.21C-5.69597 263.876 -12.7294 228.434 32.7326 221.148C38.1151 220.289 43.3391 219.37 48.4044 218.391C55.7416 216.981 62.7636 215.458 69.4702 213.823C78.5041 211.627 86.9916 209.246 94.9326 206.68C97.6038 205.821 100.214 204.944 102.763 204.049C140.446 190.814 165.668 173.554 182.836 154.827C185.748 151.657 188.432 148.449 190.889 145.203C194.649 140.261 198.064 135.067 201.11 129.657C205.314 122.14 208.846 114.266 211.663 106.126L211.818 105.679C225.477 66.2762 221.322 29.7278 236.391 17.4953C300.81 -34.7995 381.009 39.6731 418.652 127.496C420.549 131.921 422.334 136.373 424.006 140.852C424.757 142.852 425.481 144.857 426.178 146.865C428.013 152.098 429.677 157.345 431.171 162.606C431.744 164.612 432.291 166.616 432.811 168.619C433.367 170.78 433.9 172.935 434.393 175.09C438.056 190.871 440.045 206.434 440.045 221.148Z" fill="#DCE3F1"/>
<path d="M240.966 424.756C239.447 424.79 237.922 424.807 236.391 424.807C200.032 424.807 154.301 405.387 112.8 378.503C109.366 376.279 105.963 374.003 102.591 371.676L105.549 353.677L195.091 341.788L240.031 376.152L240.966 424.756Z" fill="#2F2E41"/>
<path d="M245.276 103.358H232.517C232.121 103.358 231.742 103.515 231.463 103.794C231.183 104.074 231.026 104.453 231.026 104.848V117.614C231.026 117.809 231.065 118.002 231.14 118.183C231.215 118.363 231.325 118.527 231.464 118.665C231.602 118.803 231.766 118.912 231.947 118.987C232.128 119.061 232.321 119.099 232.517 119.098H245.276C245.671 119.098 246.049 118.942 246.328 118.664C246.608 118.386 246.765 118.008 246.767 117.614V104.848C246.766 104.453 246.608 104.075 246.329 103.796C246.05 103.516 245.671 103.359 245.276 103.358Z" fill="white"/>
<path d="M245.276 125.111H232.517C232.121 125.112 231.742 125.269 231.463 125.548C231.183 125.828 231.026 126.207 231.026 126.602V139.367C231.026 139.563 231.065 139.756 231.14 139.937C231.215 140.117 231.325 140.281 231.464 140.419C231.602 140.557 231.766 140.666 231.947 140.74C232.128 140.815 232.321 140.853 232.517 140.852H245.276C245.671 140.852 246.049 140.696 246.328 140.418C246.608 140.139 246.765 139.762 246.767 139.367V126.602C246.766 126.207 246.608 125.828 246.329 125.549C246.05 125.27 245.671 125.113 245.276 125.111Z" fill="#B8B8B8"/>
<path d="M245.276 146.865H232.517C232.121 146.865 231.742 147.022 231.463 147.302C231.183 147.581 231.026 147.96 231.026 148.355V161.115C231.026 161.311 231.064 161.505 231.139 161.686C231.214 161.867 231.323 162.031 231.462 162.17C231.6 162.308 231.765 162.418 231.946 162.493C232.127 162.568 232.321 162.606 232.517 162.606H245.276C245.672 162.605 246.051 162.448 246.33 162.169C246.61 161.889 246.767 161.51 246.767 161.115V148.355C246.766 147.96 246.608 147.582 246.329 147.303C246.05 147.024 245.671 146.866 245.276 146.865Z" fill="#B8B8B8"/>
<path d="M246.744 169.845C246.68 169.502 246.499 169.192 246.231 168.968C245.963 168.744 245.625 168.62 245.276 168.619H232.517C232.121 168.619 231.742 168.776 231.463 169.055C231.183 169.335 231.026 169.714 231.026 170.109V182.869C231.026 183.065 231.064 183.259 231.139 183.44C231.214 183.621 231.323 183.785 231.462 183.924C231.6 184.062 231.765 184.172 231.946 184.247C232.127 184.321 232.321 184.36 232.517 184.359H245.276C245.672 184.359 246.051 184.202 246.33 183.923C246.61 183.643 246.767 183.264 246.767 182.869V170.109C246.768 170.021 246.76 169.932 246.744 169.845Z" fill="#B8B8B8"/>
<path d="M245.855 190.487C245.672 190.411 245.475 190.372 245.276 190.372H232.517C232.321 190.372 232.127 190.41 231.946 190.485C231.765 190.56 231.6 190.67 231.462 190.808C231.323 190.946 231.214 191.111 231.139 191.292C231.064 191.473 231.026 191.667 231.026 191.863V204.623C231.025 204.818 231.063 205.013 231.138 205.194C231.212 205.375 231.322 205.54 231.461 205.678C231.599 205.817 231.764 205.927 231.945 206.001C232.126 206.076 232.321 206.114 232.517 206.113H245.276C245.672 206.113 246.051 205.956 246.33 205.676C246.61 205.397 246.767 205.018 246.767 204.623V191.863C246.766 191.569 246.679 191.283 246.517 191.038C246.355 190.794 246.125 190.602 245.855 190.487Z" fill="#B8B8B8"/>
<path d="M272.08 103.358H259.32C258.925 103.358 258.546 103.515 258.267 103.794C257.987 104.074 257.83 104.453 257.83 104.848V117.614C257.83 117.809 257.869 118.002 257.944 118.183C258.019 118.363 258.129 118.527 258.267 118.665C258.406 118.803 258.57 118.912 258.751 118.987C258.931 119.061 259.125 119.099 259.32 119.098H272.08C272.474 119.098 272.853 118.942 273.132 118.664C273.411 118.386 273.569 118.008 273.57 117.614V104.848C273.569 104.453 273.412 104.075 273.133 103.796C272.853 103.516 272.475 103.359 272.08 103.358Z" fill="#B8B8B8"/>
<path d="M272.08 125.111H259.32C258.925 125.112 258.546 125.269 258.267 125.548C257.987 125.828 257.83 126.207 257.83 126.602V139.367C257.83 139.563 257.869 139.756 257.944 139.937C258.019 140.117 258.129 140.281 258.267 140.419C258.406 140.557 258.57 140.666 258.751 140.74C258.931 140.815 259.125 140.853 259.32 140.852H272.08C272.474 140.852 272.853 140.696 273.132 140.418C273.411 140.139 273.569 139.762 273.57 139.367V126.602C273.569 126.207 273.412 125.828 273.133 125.549C272.853 125.27 272.475 125.113 272.08 125.111Z" fill="#3E77E7"/>
<path d="M272.08 146.865H259.32C258.925 146.865 258.546 147.022 258.267 147.302C257.987 147.581 257.83 147.96 257.83 148.355V161.115C257.83 161.311 257.868 161.505 257.943 161.686C258.017 161.867 258.127 162.031 258.266 162.17C258.404 162.308 258.568 162.418 258.749 162.493C258.93 162.568 259.124 162.606 259.32 162.606H272.08C272.475 162.605 272.854 162.448 273.134 162.169C273.413 161.889 273.57 161.51 273.57 161.115V148.355C273.569 147.96 273.412 147.582 273.133 147.303C272.853 147.024 272.475 146.866 272.08 146.865Z" fill="#3E77E7"/>
<path d="M272.08 168.619H259.32C259.008 168.619 258.703 168.718 258.45 168.901C258.197 169.084 258.008 169.342 257.91 169.639C257.857 169.79 257.83 169.949 257.83 170.109V182.869C257.83 183.065 257.868 183.259 257.943 183.44C258.017 183.621 258.127 183.785 258.265 183.924C258.404 184.062 258.568 184.172 258.749 184.247C258.93 184.321 259.124 184.36 259.32 184.359H272.08C272.475 184.359 272.854 184.202 273.134 183.923C273.413 183.643 273.57 183.264 273.57 182.869V170.109C273.569 169.714 273.412 169.336 273.133 169.056C272.853 168.777 272.475 168.62 272.08 168.619Z" fill="#3E77E7"/>
<path d="M272.08 190.372H259.32C259.124 190.372 258.93 190.41 258.749 190.485C258.568 190.56 258.404 190.67 258.266 190.808C258.127 190.946 258.017 191.111 257.943 191.292C257.868 191.473 257.83 191.667 257.83 191.863V204.623C257.83 204.818 257.868 205.012 257.943 205.193C258.017 205.374 258.127 205.539 258.266 205.677C258.404 205.816 258.568 205.926 258.749 206C258.93 206.075 259.124 206.113 259.32 206.113H272.08C272.475 206.113 272.854 205.956 273.134 205.676C273.413 205.397 273.57 205.018 273.57 204.623V191.863C273.57 191.467 273.413 191.088 273.134 190.809C272.854 190.53 272.475 190.372 272.08 190.372Z" fill="#B8B8B8"/>
<path d="M298.884 103.358H286.124C285.729 103.358 285.35 103.515 285.07 103.794C284.791 104.074 284.634 104.453 284.634 104.848V117.614C284.634 117.809 284.673 118.002 284.748 118.183C284.823 118.363 284.933 118.527 285.071 118.665C285.209 118.803 285.374 118.912 285.554 118.987C285.735 119.061 285.929 119.099 286.124 119.098H298.884C299.278 119.098 299.656 118.942 299.936 118.664C300.215 118.386 300.373 118.008 300.374 117.614V104.848C300.373 104.453 300.216 104.075 299.936 103.796C299.657 103.516 299.279 103.359 298.884 103.358Z" fill="#3E77E7"/>
<path d="M298.884 125.111H286.124C285.729 125.112 285.35 125.269 285.07 125.548C284.791 125.828 284.634 126.207 284.634 126.602V139.367C284.634 139.563 284.673 139.756 284.748 139.937C284.823 140.117 284.933 140.281 285.071 140.419C285.209 140.557 285.374 140.666 285.554 140.74C285.735 140.815 285.929 140.853 286.124 140.852H298.884C299.278 140.852 299.656 140.696 299.936 140.418C300.215 140.139 300.373 139.762 300.374 139.367V126.602C300.373 126.207 300.216 125.828 299.936 125.549C299.657 125.27 299.279 125.113 298.884 125.111Z" fill="#3E77E7"/>
<path d="M298.884 146.865H286.124C285.729 146.865 285.35 147.022 285.07 147.302C284.791 147.581 284.634 147.96 284.634 148.355V161.115C284.633 161.311 284.672 161.505 284.746 161.686C284.821 161.867 284.931 162.031 285.069 162.17C285.208 162.308 285.372 162.418 285.553 162.493C285.734 162.568 285.928 162.606 286.124 162.606H298.884C299.279 162.605 299.658 162.448 299.937 162.169C300.217 161.889 300.374 161.51 300.374 161.115V148.355C300.373 147.96 300.216 147.582 299.936 147.303C299.657 147.024 299.279 146.866 298.884 146.865Z" fill="#B8B8B8"/>
<path d="M298.884 168.619H286.124C285.729 168.619 285.35 168.776 285.07 169.055C284.791 169.335 284.634 169.714 284.634 170.109V182.869C284.633 183.065 284.672 183.259 284.746 183.44C284.821 183.621 284.931 183.785 285.069 183.924C285.208 184.062 285.372 184.172 285.553 184.247C285.734 184.321 285.928 184.36 286.124 184.359H298.884C299.279 184.359 299.658 184.202 299.937 183.923C300.217 183.643 300.374 183.264 300.374 182.869V170.109C300.373 169.714 300.216 169.336 299.936 169.056C299.657 168.777 299.279 168.62 298.884 168.619Z" fill="#3E77E7"/>
<path d="M298.884 190.372H286.124C285.928 190.372 285.734 190.41 285.553 190.485C285.372 190.56 285.208 190.67 285.069 190.808C284.931 190.946 284.821 191.111 284.746 191.292C284.672 191.473 284.633 191.667 284.634 191.863V204.623C284.633 204.818 284.672 205.012 284.746 205.193C284.821 205.374 284.931 205.539 285.069 205.677C285.208 205.816 285.372 205.926 285.553 206C285.734 206.075 285.928 206.113 286.124 206.113H298.884C299.279 206.113 299.658 205.956 299.937 205.676C300.217 205.397 300.374 205.018 300.374 204.623V191.863C300.374 191.467 300.217 191.088 299.937 190.809C299.658 190.53 299.279 190.372 298.884 190.372Z" fill="#3E77E7"/>
<path d="M325.687 103.358H312.928C312.532 103.358 312.153 103.515 311.874 103.794C311.595 104.074 311.437 104.453 311.437 104.848V117.614C311.437 117.809 311.476 118.002 311.551 118.183C311.626 118.363 311.736 118.527 311.875 118.665C312.013 118.803 312.177 118.912 312.358 118.987C312.539 119.061 312.732 119.099 312.928 119.098H325.687C326.082 119.098 326.46 118.942 326.739 118.664C327.019 118.386 327.177 118.008 327.178 117.614V104.848C327.177 104.453 327.019 104.075 326.74 103.796C326.461 103.516 326.082 103.359 325.687 103.358Z" fill="#3E77E7"/>
<path d="M325.687 125.111H312.928C312.532 125.112 312.153 125.269 311.874 125.548C311.594 125.828 311.437 126.207 311.437 126.602V139.367C311.437 139.563 311.476 139.756 311.551 139.937C311.626 140.117 311.736 140.281 311.875 140.419C312.013 140.557 312.177 140.666 312.358 140.74C312.539 140.815 312.732 140.853 312.928 140.852H325.687C326.082 140.852 326.46 140.696 326.739 140.418C327.019 140.139 327.177 139.762 327.178 139.367V126.602C327.177 126.207 327.019 125.828 326.74 125.549C326.461 125.27 326.082 125.113 325.687 125.111Z" fill="white"/>
<path d="M325.687 146.865H312.928C312.532 146.865 312.153 147.022 311.874 147.302C311.595 147.581 311.437 147.96 311.437 148.355V161.115C311.437 161.311 311.475 161.505 311.55 161.686C311.625 161.867 311.734 162.031 311.873 162.17C312.011 162.308 312.176 162.418 312.357 162.493C312.538 162.568 312.732 162.606 312.928 162.606H325.687C326.083 162.605 326.462 162.448 326.741 162.169C327.021 161.889 327.178 161.51 327.178 161.115V148.355C327.177 147.96 327.019 147.582 326.74 147.303C326.461 147.024 326.082 146.866 325.687 146.865Z" fill="white"/>
<path d="M325.687 168.619H312.928C312.532 168.619 312.153 168.776 311.874 169.055C311.595 169.335 311.437 169.714 311.437 170.109V182.869C311.437 183.065 311.475 183.259 311.55 183.44C311.625 183.621 311.734 183.785 311.873 183.924C312.011 184.062 312.176 184.172 312.357 184.247C312.538 184.321 312.732 184.36 312.928 184.359H325.687C326.083 184.359 326.462 184.202 326.741 183.923C327.021 183.643 327.178 183.264 327.178 182.869V170.109C327.177 169.714 327.019 169.336 326.74 169.056C326.461 168.777 326.082 168.62 325.687 168.619Z" fill="#B8B8B8"/>
<path d="M325.687 190.372H312.928C312.732 190.372 312.538 190.41 312.357 190.485C312.176 190.56 312.011 190.669 311.873 190.808C311.734 190.946 311.625 191.111 311.55 191.292C311.475 191.473 311.437 191.667 311.437 191.863V204.623C311.437 204.818 311.475 205.012 311.55 205.193C311.625 205.374 311.734 205.539 311.873 205.677C312.011 205.816 312.176 205.926 312.357 206C312.538 206.075 312.732 206.113 312.928 206.113H325.687C326.083 206.113 326.462 205.956 326.741 205.676C327.021 205.397 327.178 205.018 327.178 204.623V191.863C327.178 191.467 327.021 191.088 326.741 190.809C326.462 190.53 326.083 190.372 325.687 190.372Z" fill="#3E77E7"/>
<path d="M352.491 103.358H339.726C339.331 103.359 338.954 103.517 338.675 103.796C338.397 104.075 338.241 104.454 338.241 104.848V117.614C338.241 118.007 338.398 118.385 338.676 118.663C338.954 118.942 339.332 119.098 339.726 119.098H352.491C352.886 119.098 353.264 118.942 353.543 118.664C353.823 118.386 353.98 118.008 353.982 117.614V104.848C353.98 104.453 353.823 104.075 353.544 103.796C353.265 103.516 352.886 103.359 352.491 103.358Z" fill="white"/>
<path d="M352.491 125.111H339.726C339.331 125.113 338.954 125.27 338.675 125.55C338.397 125.829 338.241 126.207 338.241 126.602V139.367C338.241 139.761 338.398 140.139 338.676 140.417C338.954 140.695 339.332 140.852 339.726 140.852H352.491C352.886 140.852 353.264 140.696 353.543 140.418C353.823 140.139 353.98 139.762 353.982 139.367V126.602C353.98 126.207 353.823 125.828 353.544 125.549C353.265 125.27 352.886 125.113 352.491 125.111Z" fill="white"/>
<path d="M352.491 146.865H339.726C339.331 146.866 338.954 147.024 338.675 147.303C338.397 147.583 338.241 147.961 338.241 148.355V161.115C338.24 161.311 338.278 161.504 338.353 161.685C338.427 161.866 338.536 162.03 338.674 162.168C338.812 162.307 338.976 162.417 339.156 162.492C339.337 162.567 339.53 162.605 339.726 162.606H352.491C352.886 162.605 353.265 162.448 353.545 162.169C353.824 161.889 353.981 161.51 353.982 161.115V148.355C353.98 147.96 353.823 147.582 353.544 147.303C353.265 147.024 352.886 146.866 352.491 146.865Z" fill="white"/>
<path d="M352.491 168.619H339.726C339.331 168.62 338.954 168.778 338.675 169.057C338.397 169.336 338.241 169.715 338.241 170.109V182.869C338.24 183.064 338.278 183.258 338.353 183.439C338.427 183.619 338.536 183.784 338.674 183.922C338.812 184.06 338.976 184.17 339.156 184.245C339.337 184.32 339.53 184.359 339.726 184.359H352.491C352.886 184.359 353.265 184.202 353.545 183.923C353.824 183.643 353.981 183.264 353.982 182.869V170.109C353.98 169.714 353.823 169.336 353.544 169.056C353.265 168.777 352.886 168.62 352.491 168.619Z" fill="#3E77E7"/>
<path d="M352.491 190.372H339.726C339.53 190.373 339.337 190.411 339.156 190.486C338.976 190.561 338.812 190.671 338.674 190.81C338.536 190.948 338.427 191.112 338.353 191.293C338.278 191.474 338.24 191.667 338.241 191.863V204.623C338.24 204.818 338.278 205.012 338.353 205.192C338.427 205.373 338.536 205.537 338.674 205.676C338.812 205.814 338.976 205.924 339.156 205.999C339.337 206.074 339.53 206.113 339.726 206.113H352.491C352.886 206.113 353.265 205.956 353.545 205.676C353.824 205.397 353.981 205.018 353.982 204.623V191.863C353.981 191.467 353.824 191.088 353.545 190.809C353.265 190.53 352.886 190.372 352.491 190.372Z" fill="#B8B8B8"/>
<path d="M379.295 103.358H366.529C366.135 103.359 365.757 103.517 365.479 103.796C365.201 104.075 365.044 104.454 365.045 104.848V117.614C365.045 118.007 365.201 118.385 365.479 118.663C365.758 118.942 366.135 119.098 366.529 119.098H379.295C379.689 119.098 380.067 118.942 380.347 118.664C380.626 118.386 380.784 118.008 380.785 117.614V104.848C380.784 104.453 380.627 104.075 380.347 103.796C380.068 103.516 379.69 103.359 379.295 103.358Z" fill="white"/>
<path d="M379.295 125.111H366.529C366.135 125.113 365.757 125.27 365.479 125.55C365.201 125.829 365.044 126.207 365.045 126.602V139.367C365.045 139.761 365.201 140.139 365.479 140.417C365.758 140.695 366.135 140.852 366.529 140.852H379.295C379.689 140.852 380.067 140.696 380.347 140.418C380.626 140.139 380.784 139.762 380.785 139.367V126.602C380.784 126.207 380.627 125.828 380.347 125.549C380.068 125.27 379.69 125.113 379.295 125.111Z" fill="white"/>
<path d="M379.295 146.865H366.529C366.135 146.866 365.757 147.024 365.479 147.303C365.201 147.583 365.044 147.961 365.045 148.355V161.115C365.044 161.311 365.082 161.504 365.156 161.685C365.231 161.866 365.34 162.03 365.478 162.168C365.616 162.307 365.78 162.417 365.96 162.492C366.14 162.567 366.334 162.605 366.529 162.606H379.295C379.69 162.605 380.069 162.448 380.348 162.169C380.628 161.889 380.785 161.51 380.785 161.115V148.355C380.784 147.96 380.627 147.582 380.347 147.303C380.068 147.024 379.69 146.866 379.295 146.865Z" fill="#3E77E7"/>
<path d="M379.295 168.619H366.529C366.135 168.62 365.757 168.778 365.479 169.057C365.201 169.336 365.044 169.715 365.045 170.109V182.869C365.044 183.064 365.082 183.258 365.156 183.439C365.231 183.619 365.34 183.784 365.478 183.922C365.616 184.06 365.78 184.17 365.96 184.245C366.14 184.32 366.334 184.359 366.529 184.359H379.295C379.69 184.359 380.069 184.202 380.348 183.923C380.628 183.643 380.785 183.264 380.785 182.869V170.109C380.784 169.714 380.627 169.336 380.347 169.056C380.068 168.777 379.69 168.62 379.295 168.619Z" fill="#B8B8B8"/>
<path d="M379.295 190.372H366.529C366.334 190.373 366.14 190.411 365.96 190.486C365.78 190.561 365.616 190.671 365.478 190.81C365.34 190.948 365.231 191.112 365.156 191.293C365.082 191.474 365.044 191.667 365.045 191.863V204.623C365.044 204.818 365.082 205.012 365.156 205.192C365.231 205.373 365.34 205.537 365.478 205.676C365.616 205.814 365.78 205.924 365.96 205.999C366.14 206.074 366.334 206.113 366.529 206.113H379.295C379.69 206.113 380.069 205.956 380.348 205.676C380.628 205.397 380.785 205.018 380.785 204.623V191.863C380.785 191.467 380.628 191.088 380.348 190.809C380.069 190.53 379.69 190.373 379.295 190.372Z" fill="white"/>
<path d="M406.099 103.358H393.333C392.939 103.359 392.561 103.517 392.283 103.796C392.004 104.075 391.848 104.454 391.848 104.848V117.614C391.848 118.007 392.005 118.385 392.283 118.663C392.562 118.942 392.939 119.098 393.333 119.098H406.099C406.493 119.098 406.871 118.942 407.151 118.664C407.43 118.386 407.588 118.008 407.589 117.614V104.848C407.588 104.453 407.43 104.075 407.151 103.796C406.872 103.516 406.494 103.359 406.099 103.358Z" fill="#3E77E7"/>
<path d="M406.099 125.111H393.333C392.939 125.113 392.561 125.27 392.283 125.55C392.004 125.829 391.848 126.207 391.848 126.602V139.367C391.848 139.761 392.005 140.139 392.283 140.417C392.562 140.695 392.939 140.852 393.333 140.852H406.099C406.493 140.852 406.871 140.696 407.151 140.418C407.43 140.139 407.588 139.762 407.589 139.367V126.602C407.588 126.207 407.43 125.828 407.151 125.549C406.872 125.27 406.494 125.113 406.099 125.111Z" fill="#3E77E7"/>
<path d="M406.099 146.865H393.333C392.939 146.866 392.561 147.024 392.283 147.303C392.004 147.583 391.848 147.961 391.848 148.355V161.115C391.848 161.311 391.886 161.504 391.96 161.685C392.035 161.866 392.144 162.03 392.282 162.168C392.42 162.307 392.583 162.417 392.764 162.492C392.944 162.567 393.138 162.605 393.333 162.606H406.099C406.494 162.605 406.873 162.448 407.152 162.169C407.432 161.889 407.589 161.51 407.589 161.115V148.355C407.588 147.96 407.43 147.582 407.151 147.303C406.872 147.024 406.494 146.866 406.099 146.865Z" fill="#B8B8B8"/>
<path d="M406.099 168.619H393.333C392.939 168.62 392.561 168.778 392.283 169.057C392.004 169.336 391.848 169.715 391.848 170.109V182.869C391.848 183.064 391.886 183.258 391.96 183.439C392.035 183.619 392.144 183.784 392.282 183.922C392.42 184.06 392.583 184.17 392.764 184.245C392.944 184.32 393.138 184.359 393.333 184.359H406.099C406.494 184.359 406.873 184.202 407.152 183.923C407.432 183.643 407.589 183.264 407.589 182.869V170.109C407.588 169.714 407.43 169.336 407.151 169.056C406.872 168.777 406.494 168.62 406.099 168.619Z" fill="white"/>
<path d="M406.099 190.372H393.333C393.138 190.373 392.944 190.411 392.764 190.486C392.583 190.561 392.42 190.671 392.282 190.81C392.144 190.948 392.035 191.112 391.96 191.293C391.886 191.474 391.848 191.667 391.848 191.863V204.623C391.848 204.818 391.886 205.012 391.96 205.192C392.035 205.373 392.144 205.537 392.282 205.676C392.42 205.814 392.583 205.924 392.764 205.999C392.944 206.074 393.138 206.113 393.333 206.113H406.099C406.494 206.113 406.873 205.956 407.152 205.676C407.432 205.397 407.589 205.018 407.589 204.623V191.863C407.589 191.467 407.432 191.088 407.152 190.809C406.873 190.53 406.494 190.373 406.099 190.372Z" fill="#3E77E7"/>
<path d="M432.902 103.358H420.137C419.742 103.359 419.365 103.517 419.086 103.796C418.808 104.075 418.652 104.454 418.652 104.848V117.614C418.652 118.007 418.809 118.385 419.087 118.663C419.365 118.942 419.743 119.098 420.137 119.098H432.902C433.297 119.098 433.675 118.942 433.954 118.664C434.234 118.386 434.391 118.008 434.393 117.614V104.848C434.392 104.453 434.234 104.075 433.955 103.796C433.676 103.516 433.297 103.359 432.902 103.358Z" fill="#3E77E7"/>
<path d="M432.902 125.111H420.137C419.742 125.113 419.365 125.27 419.086 125.55C418.808 125.829 418.652 126.207 418.652 126.602V139.367C418.652 139.761 418.809 140.139 419.087 140.417C419.365 140.695 419.743 140.852 420.137 140.852H432.902C433.297 140.852 433.675 140.696 433.954 140.418C434.234 140.139 434.391 139.762 434.393 139.367V126.602C434.392 126.207 434.234 125.828 433.955 125.549C433.676 125.27 433.297 125.113 432.902 125.111Z" fill="#3E77E7"/>
<path d="M432.902 146.865H420.137C419.742 146.866 419.365 147.024 419.086 147.303C418.808 147.583 418.652 147.961 418.652 148.355V161.115C418.652 161.311 418.69 161.504 418.764 161.685C418.838 161.866 418.947 162.03 419.085 162.168C419.223 162.307 419.387 162.417 419.568 162.492C419.748 162.567 419.941 162.605 420.137 162.606H432.902C433.298 162.605 433.676 162.448 433.956 162.169C434.235 161.889 434.393 161.51 434.393 161.115V148.355C434.392 147.96 434.234 147.582 433.955 147.303C433.676 147.024 433.297 146.866 432.902 146.865Z" fill="#B8B8B8"/>
<path d="M432.902 168.619H420.137C419.742 168.62 419.365 168.778 419.086 169.057C418.808 169.336 418.652 169.715 418.652 170.109V182.869C418.652 183.064 418.69 183.258 418.764 183.439C418.838 183.619 418.947 183.784 419.085 183.922C419.223 184.06 419.387 184.17 419.568 184.245C419.748 184.32 419.941 184.359 420.137 184.359H432.902C433.298 184.359 433.677 184.202 433.956 183.923C434.235 183.643 434.393 183.264 434.393 182.869V170.109C434.392 169.714 434.234 169.336 433.955 169.056C433.676 168.777 433.297 168.62 432.902 168.619Z" fill="#3E77E7"/>
<path d="M432.902 190.372H420.137C419.941 190.373 419.748 190.411 419.568 190.486C419.387 190.561 419.223 190.671 419.085 190.81C418.947 190.948 418.838 191.112 418.764 191.293C418.69 191.474 418.652 191.667 418.652 191.863V204.623C418.652 204.818 418.69 205.012 418.764 205.192C418.838 205.373 418.947 205.537 419.085 205.676C419.223 205.814 419.387 205.924 419.567 205.999C419.748 206.074 419.941 206.113 420.137 206.113H432.902C433.298 206.113 433.677 205.956 433.956 205.676C434.235 205.397 434.393 205.018 434.393 204.623V191.863C434.393 191.467 434.235 191.088 433.956 190.809C433.677 190.53 433.298 190.373 432.902 190.372Z" fill="#3E77E7"/>
<path d="M459.706 103.358H446.94C446.546 103.359 446.168 103.517 445.89 103.796C445.612 104.075 445.456 104.454 445.456 104.848V117.614C445.456 118.007 445.612 118.385 445.891 118.663C446.169 118.942 446.547 119.098 446.94 119.098H459.706C460.1 119.098 460.479 118.942 460.758 118.664C461.037 118.386 461.195 118.008 461.196 117.614V104.848C461.195 104.453 461.038 104.075 460.758 103.796C460.479 103.516 460.101 103.359 459.706 103.358Z" fill="#B8B8B8"/>
<path d="M459.706 125.111H446.94C446.546 125.113 446.168 125.27 445.89 125.55C445.612 125.829 445.456 126.207 445.456 126.602V139.367C445.456 139.761 445.612 140.139 445.891 140.417C446.169 140.695 446.547 140.852 446.94 140.852H459.706C460.1 140.852 460.479 140.696 460.758 140.418C461.037 140.139 461.195 139.762 461.196 139.367V126.602C461.195 126.207 461.038 125.828 460.758 125.549C460.479 125.27 460.101 125.113 459.706 125.111Z" fill="#3E77E7"/>
<path d="M459.706 146.865H446.94C446.546 146.866 446.168 147.024 445.89 147.303C445.612 147.583 445.456 147.961 445.456 148.355V161.115C445.455 161.311 445.493 161.504 445.567 161.685C445.642 161.866 445.751 162.03 445.889 162.168C446.027 162.307 446.191 162.417 446.371 162.492C446.552 162.567 446.745 162.605 446.94 162.606H459.706C460.101 162.605 460.48 162.448 460.76 162.169C461.039 161.889 461.196 161.51 461.196 161.115V148.355C461.195 147.96 461.038 147.582 460.758 147.303C460.479 147.024 460.101 146.866 459.706 146.865Z" fill="#3E77E7"/>
<path d="M459.706 168.619H446.94C446.546 168.62 446.168 168.778 445.89 169.057C445.612 169.336 445.456 169.715 445.456 170.109V182.869C445.455 183.064 445.493 183.258 445.567 183.439C445.642 183.619 445.751 183.784 445.889 183.922C446.027 184.06 446.191 184.17 446.371 184.245C446.551 184.32 446.745 184.359 446.94 184.359H459.706C460.101 184.359 460.48 184.202 460.76 183.923C461.039 183.643 461.196 183.264 461.196 182.869V170.109C461.195 169.714 461.038 169.336 460.758 169.056C460.479 168.777 460.101 168.62 459.706 168.619Z" fill="#3E77E7"/>
<path d="M459.706 190.372H446.94C446.745 190.373 446.551 190.411 446.371 190.486C446.191 190.561 446.027 190.671 445.889 190.81C445.751 190.948 445.642 191.112 445.567 191.293C445.493 191.474 445.455 191.667 445.456 191.863V204.623C445.455 204.818 445.493 205.012 445.567 205.192C445.642 205.373 445.751 205.537 445.889 205.676C446.027 205.814 446.191 205.924 446.371 205.999C446.551 206.074 446.745 206.113 446.94 206.113H459.706C460.101 206.113 460.48 205.956 460.76 205.676C461.039 205.397 461.196 205.018 461.196 204.623V191.863C461.196 191.467 461.039 191.088 460.76 190.809C460.48 190.53 460.101 190.373 459.706 190.372Z" fill="#B8B8B8"/>
<path d="M486.51 103.358H473.744C473.35 103.359 472.972 103.517 472.694 103.796C472.415 104.075 472.259 104.454 472.259 104.848V117.614C472.259 118.007 472.416 118.385 472.694 118.663C472.973 118.942 473.35 119.098 473.744 119.098H486.51C486.904 119.098 487.282 118.942 487.562 118.664C487.841 118.386 487.999 118.008 488 117.614V104.848C487.999 104.453 487.841 104.075 487.562 103.796C487.283 103.516 486.905 103.359 486.51 103.358Z" fill="#B8B8B8"/>
<path d="M486.51 125.111H473.744C473.35 125.113 472.972 125.27 472.694 125.55C472.415 125.829 472.259 126.207 472.259 126.602V139.367C472.259 139.761 472.416 140.139 472.694 140.417C472.973 140.695 473.35 140.852 473.744 140.852H486.51C486.904 140.852 487.282 140.696 487.562 140.418C487.841 140.139 487.999 139.762 488 139.367V126.602C487.999 126.207 487.841 125.828 487.562 125.549C487.283 125.27 486.905 125.113 486.51 125.111Z" fill="#B8B8B8"/>
<path d="M486.51 146.865H473.744C473.35 146.866 472.972 147.024 472.694 147.303C472.415 147.583 472.259 147.961 472.259 148.355V161.115C472.259 161.311 472.297 161.504 472.371 161.685C472.446 161.866 472.555 162.03 472.693 162.168C472.831 162.307 472.994 162.417 473.175 162.492C473.355 162.567 473.549 162.605 473.744 162.606H486.51C486.905 162.605 487.284 162.448 487.563 162.169C487.843 161.889 488 161.51 488 161.115V148.355C487.999 147.96 487.841 147.582 487.562 147.303C487.283 147.024 486.905 146.866 486.51 146.865Z" fill="#3E77E7"/>
<path d="M486.51 168.619H473.744C473.35 168.62 472.972 168.778 472.694 169.057C472.416 169.336 472.259 169.715 472.259 170.109V182.869C472.259 183.064 472.297 183.258 472.371 183.439C472.446 183.619 472.555 183.784 472.693 183.922C472.831 184.06 472.994 184.17 473.175 184.245C473.355 184.32 473.549 184.359 473.744 184.359H486.51C486.905 184.359 487.284 184.202 487.563 183.923C487.843 183.643 488 183.264 488 182.869V170.109C487.999 169.714 487.841 169.336 487.562 169.056C487.283 168.777 486.905 168.62 486.51 168.619Z" fill="#B8B8B8"/>
<path d="M486.51 190.372H473.744C473.549 190.373 473.355 190.411 473.175 190.486C472.994 190.561 472.831 190.671 472.693 190.81C472.555 190.948 472.446 191.112 472.371 191.293C472.297 191.474 472.259 191.667 472.259 191.863V204.623C472.259 204.818 472.297 205.012 472.371 205.192C472.446 205.373 472.555 205.537 472.693 205.676C472.831 205.814 472.994 205.924 473.175 205.999C473.355 206.074 473.549 206.113 473.744 206.113H486.51C486.905 206.113 487.284 205.956 487.563 205.676C487.843 205.397 488 205.018 488 204.623V191.863C488 191.467 487.843 191.088 487.563 190.809C487.284 190.53 486.905 190.373 486.51 190.372Z" fill="#B8B8B8"/>
<path d="M193.111 378.503H192.756L193.06 378.463L193.111 378.503Z" fill="#2F2E41"/>
<path d="M162.57 140.62C184.2 140.62 201.734 123.086 201.734 101.456C201.734 79.8272 184.2 62.2931 162.57 62.2931C140.941 62.2931 123.407 79.8272 123.407 101.456C123.407 123.086 140.941 140.62 162.57 140.62Z" fill="#FFB6B6"/>
<path d="M196.867 72.7426C196.867 72.7426 207.11 53.1609 184.575 51.3807C184.575 51.3807 165.363 33.9536 145.782 48.1948C145.782 48.1948 135.101 48.1948 129.26 60.2815C129.26 60.2815 120.86 57.0955 119.014 65.6219C119.014 65.6219 112.867 83.4235 119.014 99.4449C125.161 115.466 127.202 117.246 127.202 117.246C127.202 117.246 117.102 83.6567 141.687 81.8765C166.273 80.0963 193.785 64.7319 195.834 84.3135C197.883 103.895 200.967 108.72 200.967 108.72C200.967 108.72 220.427 80.7533 196.867 72.7426Z" fill="#484335"/>
<path d="M263.877 197.973L263.751 198.638L262.335 206.113L252.55 257.817L251.972 260.861L250.756 267.298L249.094 276.08L245.408 295.541L244.354 301.118L243.958 303.21L243.82 303.944L242.726 309.716L242.393 311.459L239.722 331.252L237.389 348.5L245.196 356.308L240.542 360.962L237.486 378.463L237.492 378.503H112.8C107.755 375.235 102.784 371.867 97.8847 368.397L98.9107 360.716C98.9107 360.716 102.442 346.999 100.957 345.359C99.4782 343.72 96.2337 340.791 96.2337 340.791L100.321 331.252L100.888 329.928L99.9368 310.192L99.9139 309.716L99.5986 303.21L99.5585 302.373L99.4954 301.118L98.2859 276.08L98.263 275.667L97.8962 268.078L97.5522 260.861L97.4032 257.817L95.93 227.362L94.9326 206.68L94.0613 188.676L97.5637 187.489L135.024 174.758L150.541 154.586L182.836 154.827L198.645 154.947L225.025 179.412L231.026 182.278L231.072 182.301L235.377 184.359L246.291 189.57L257.83 195.084L263.751 197.91L263.877 197.973Z" fill="#CACACA"/>
<path d="M154.714 319.749C152.347 320.665 149.809 321.052 147.276 320.882C144.744 320.711 142.28 319.987 140.058 318.762C137.835 317.536 135.909 315.838 134.414 313.787C132.919 311.736 131.892 309.382 131.405 306.891L70.3232 298.225L91.5569 274.206L146.306 286.118C150.544 285.577 154.834 286.61 158.362 289.021C161.89 291.432 164.411 295.053 165.448 299.198C166.484 303.344 165.964 307.725 163.986 311.513C162.007 315.3 158.708 318.231 154.714 319.749V319.749Z" fill="#FFB6B6"/>
<path d="M127.48 276.08C126.348 274.646 124.747 273.657 122.957 273.288L97.8961 268.078L95.3223 267.545C93.8266 267.233 92.4136 266.608 91.1759 265.712C89.9382 264.816 88.9036 263.669 88.1399 262.346C87.3476 260.956 86.8683 259.411 86.7355 257.817C86.616 256.368 86.7895 254.91 87.2456 253.53L95.9299 227.362L101.565 210.383C102.248 208.336 102.651 206.205 102.763 204.049C103.077 198.084 101.231 192.205 97.5635 187.489C94.3394 183.344 89.8675 180.346 84.8086 178.938C79.7496 177.53 74.372 177.787 69.4701 179.67C69.3268 179.722 69.1778 179.779 69.0345 179.837C65.5191 181.24 62.3783 183.442 59.8604 186.269C57.3424 189.095 55.5163 192.468 54.5263 196.122L48.4043 218.391L35.7763 264.3C34.5122 268.9 34.2568 273.719 35.0277 278.426C35.7985 283.134 37.5773 287.619 40.2424 291.575C42.9075 295.532 46.396 298.865 50.469 301.348C54.542 303.831 59.1035 305.405 63.8411 305.962L99.9367 310.192L116.64 312.153C118.572 312.385 120.52 311.881 122.096 310.741C123.673 309.601 124.762 307.909 125.147 306.002C125.174 305.898 125.195 305.793 125.21 305.687L125.611 303.21L129.01 282.357L129.045 282.145C129.222 281.08 129.174 279.991 128.905 278.947C128.635 277.902 128.15 276.925 127.48 276.08Z" fill="#CACACA"/>
<path d="M193.62 320.417C196.093 320.991 198.661 321.016 201.144 320.49C203.627 319.964 205.964 318.9 207.991 317.373C210.018 315.846 211.686 313.893 212.877 311.652C214.068 309.411 214.753 306.936 214.884 304.401L274.133 287.208L249.724 266.424L197.202 285.937C192.93 285.999 188.829 287.627 185.676 290.511C182.523 293.395 180.538 297.336 180.096 301.586C179.655 305.836 180.788 310.101 183.28 313.571C185.773 317.042 189.452 319.478 193.62 320.417V320.417Z" fill="#FFB6B6"/>
<path d="M303.55 248.749L275.37 183.895C273.065 178.57 268.949 174.235 263.751 171.657C262.145 170.866 260.457 170.251 258.718 169.822C258.449 169.754 258.179 169.691 257.91 169.639C254.223 168.834 250.399 168.905 246.744 169.845C243.403 170.704 240.28 172.257 237.58 174.403C234.88 176.549 232.662 179.24 231.072 182.301C231.055 182.327 231.039 182.354 231.026 182.382C229.25 185.818 228.305 189.623 228.268 193.491C228.232 197.359 229.104 201.182 230.814 204.651L231.164 205.351L251.077 245.344C251.757 246.712 252.14 248.208 252.202 249.734C252.263 251.26 252.001 252.781 251.432 254.199C250.864 255.617 250.002 256.898 248.904 257.959C247.805 259.02 246.495 259.837 245.059 260.357L243.66 260.861L218.507 269.946C216.62 270.62 215.067 272 214.177 273.795C213.286 275.59 213.127 277.661 213.732 279.571L213.795 279.772L220.846 302.333C220.88 302.437 220.914 302.54 220.955 302.643C221.017 302.838 221.093 303.027 221.184 303.21C221.933 304.891 223.258 306.249 224.919 307.04C226.58 307.831 228.469 308.004 230.246 307.527L243.82 303.944L246.589 303.21L281.641 293.953C286.253 292.734 290.548 290.533 294.23 287.5C297.913 284.468 300.897 280.675 302.977 276.382C305.058 272.09 306.186 267.398 306.285 262.628C306.384 257.859 305.451 253.124 303.55 248.749L303.55 248.749Z" fill="#CACACA"/>
<path d="M26.1921 303.21C34.3149 313.118 43.0751 322.485 52.4169 331.252H311.495C313.991 331.256 316.383 332.25 318.148 334.015C319.912 335.781 320.904 338.174 320.907 340.67L321.279 406.321C337.217 398.998 352.143 389.648 365.687 378.503C369.447 375.413 373.091 372.19 376.618 368.832C378.928 366.643 381.183 364.4 383.382 362.103C399.87 344.926 413.221 324.994 422.831 303.21H26.1921Z" fill="#3F3D56"/>
<path d="M383.382 362.103C381.186 364.401 378.932 366.645 376.618 368.832H321.469V362.103H383.382Z" fill="white"/>
<path d="M263.361 146.865C263.089 146.362 262.686 145.942 262.194 145.65C261.703 145.357 261.142 145.203 260.57 145.203H72.6458C71.8033 145.205 70.9959 145.541 70.4007 146.137C69.8055 146.734 69.4708 147.541 69.4702 148.384V260.861H263.751V148.384C263.754 147.853 263.62 147.329 263.361 146.865Z" fill="#3F3D56"/>
<path d="M69.3 257.816V271.696C69.3 272.271 69.4134 272.841 69.6336 273.372C69.8538 273.904 70.1765 274.387 70.5834 274.794C70.9902 275.201 71.4733 275.524 72.0049 275.744C72.5365 275.964 73.1062 276.077 73.6816 276.077H145.389V303.469H144.437C144.362 303.469 144.288 303.484 144.219 303.513C144.15 303.541 144.087 303.583 144.034 303.636C143.981 303.689 143.94 303.752 143.911 303.821C143.882 303.89 143.868 303.964 143.868 304.039V305.944C143.868 306.019 143.882 306.093 143.911 306.162C143.939 306.231 143.981 306.293 144.034 306.346C144.087 306.399 144.15 306.441 144.219 306.47C144.288 306.498 144.362 306.513 144.437 306.513H188.952C189.027 306.513 189.101 306.498 189.17 306.47C189.239 306.441 189.302 306.399 189.355 306.346C189.407 306.293 189.449 306.231 189.478 306.162C189.507 306.093 189.521 306.019 189.521 305.944V304.039C189.521 303.964 189.507 303.89 189.478 303.821C189.449 303.752 189.407 303.689 189.355 303.636C189.302 303.583 189.239 303.541 189.17 303.513C189.101 303.484 189.027 303.469 188.952 303.469H187.999V276.077H259.707C260.283 276.077 260.852 275.964 261.384 275.744C261.916 275.524 262.399 275.201 262.805 274.794C263.212 274.387 263.535 273.904 263.755 273.372C263.975 272.841 264.089 272.271 264.089 271.696V257.816H69.3Z" fill="#3F3D56"/>
<path d="M164.341 217.979C174.252 217.979 182.286 209.944 182.286 200.033C182.286 190.122 174.252 182.088 164.341 182.088C154.43 182.088 146.395 190.122 146.395 200.033C146.395 209.944 154.43 217.979 164.341 217.979Z" fill="#3E77E7"/>
<path d="M210.064 99.3165H207.197C207.197 77.6489 185.753 63.4502 164.12 63.4388C160.973 63.4296 157.834 63.7349 154.748 64.3502C151.274 65.0438 147.669 65.875 144.126 66.9583C130.157 71.2403 117.202 79.5176 117.202 99.3165C117.199 103.162 117.688 106.991 118.658 110.712L115.884 111.434C114.855 107.477 114.335 103.405 114.336 99.3165C114.336 82.0168 121.438 70.134 133.705 63.049C140.154 59.3231 148.024 56.9213 157.041 55.7519C160.793 55.2527 164.586 55.1375 168.362 55.408C193.24 57.1964 210.064 76.2731 210.064 99.3165Z" fill="#3E77E7"/>
<path d="M214.838 100.904L213.709 92.5583C213.431 90.4506 212.415 88.5094 210.843 87.0783C209.834 86.1454 208.625 85.4542 207.31 85.0569C205.994 84.6597 204.605 84.5669 203.248 84.7854L201.454 85.0319C200.963 85.0965 200.49 85.258 200.062 85.507C199.634 85.7559 199.259 86.0874 198.96 86.4822C198.659 86.8756 198.438 87.3249 198.311 87.804C198.184 88.2831 198.154 88.7826 198.221 89.2737L200.829 108.499C200.936 109.283 201.288 110.013 201.833 110.586C202.378 111.159 203.09 111.546 203.867 111.692C204.097 111.738 204.332 111.761 204.566 111.761C204.735 111.761 204.904 111.75 205.071 111.727L207.077 111.457C208.3 111.295 209.477 110.884 210.536 110.25C211.595 109.617 212.513 108.773 213.233 107.771C213.388 107.554 213.537 107.33 213.675 107.101C214.749 105.225 215.159 103.042 214.838 100.904Z" fill="#3E77E7"/>
<path d="M200.296 85.3816C199.77 85.6373 199.312 86.0145 198.96 86.4822C198.659 86.8756 198.438 87.3249 198.311 87.804C198.184 88.2831 198.154 88.7827 198.221 89.2737L200.829 108.499C200.936 109.283 201.288 110.013 201.833 110.586C202.378 111.159 203.09 111.546 203.867 111.692L200.296 85.3816Z" fill="#DCE3F1"/>
<path d="M214.838 100.904L213.709 92.5583C213.431 90.4506 212.415 88.5094 210.843 87.0783L213.44 106.207C213.479 106.514 213.558 106.814 213.675 107.101C214.749 105.225 215.159 103.042 214.838 100.904Z" fill="#3F3D56"/>
<path d="M205.914 106.918C206.698 106.811 207.092 104.945 206.794 102.749C206.496 100.553 205.619 98.8592 204.835 98.9656C204.051 99.072 203.656 100.938 203.954 103.134C204.252 105.33 205.129 107.024 205.914 106.918Z" fill="#3F3D56"/>
<path d="M204.194 96.5999C204.978 96.4935 205.372 94.627 205.075 92.4311C204.777 90.2352 203.899 88.5412 203.115 88.6476C202.331 88.754 201.937 90.6204 202.235 92.8164C202.532 95.0123 203.41 96.7062 204.194 96.5999Z" fill="#3F3D56"/>
<path d="M215.085 100.612C215.869 100.506 216.264 98.6396 215.966 96.4437C215.668 94.2477 214.791 92.5538 214.006 92.6602C213.222 92.7666 212.828 94.633 213.126 96.829C213.424 99.0249 214.301 100.719 215.085 100.612Z" fill="#3F3D56"/>
<path d="M164.12 63.4388C160.973 63.4296 157.834 63.7349 154.748 64.3502C151.274 65.0438 147.669 65.8749 144.126 66.9583C138.595 66.6889 134.525 65.2558 133.705 63.049C140.154 59.323 148.024 56.9213 157.041 55.7519C160.793 55.2527 164.586 55.1375 168.362 55.408C168.762 55.6423 169.107 55.9585 169.376 56.3359C169.645 56.7133 169.83 57.1433 169.921 57.5977C170.19 59.5925 167.915 61.7134 164.12 63.4388Z" fill="#3F3D56"/>
<path d="M127.526 119.207L123.112 100.859C122.955 100.197 122.605 99.5958 122.107 99.1318C121.61 98.6677 120.986 98.3611 120.315 98.2504C120.125 98.2208 119.933 98.2055 119.741 98.2045C119.471 98.2055 119.202 98.2382 118.939 98.3019L117.231 98.7147C115.031 99.2466 113.133 100.629 111.952 102.559C110.771 104.489 110.404 106.809 110.931 109.01L112.909 117.241C113.36 119.179 114.436 120.915 115.97 122.182C116.218 122.383 116.479 122.569 116.749 122.738C117.71 123.34 118.782 123.744 119.901 123.925C121.021 124.106 122.165 124.061 123.267 123.793L124.969 123.38C125.419 123.275 125.843 123.078 126.213 122.801C126.764 122.4 127.182 121.844 127.416 121.204C127.65 120.564 127.688 119.869 127.526 119.207Z" fill="#3E77E7"/>
<path d="M118.273 115.793C119.042 115.608 119.246 113.711 118.727 111.557C118.209 109.402 117.165 107.806 116.395 107.991C115.626 108.176 115.422 110.073 115.941 112.227C116.459 114.382 117.503 115.978 118.273 115.793Z" fill="#3F3D56"/>
<path d="M112.54 117.513C113.31 117.328 113.513 115.431 112.995 113.276C112.477 111.122 111.432 109.525 110.663 109.711C109.893 109.896 109.69 111.792 110.208 113.947C110.727 116.102 111.771 117.698 112.54 117.513Z" fill="#3F3D56"/>
<path d="M127.807 119.138L123.393 100.79C123.221 100.073 122.841 99.4238 122.302 98.9222C121.763 98.4205 121.087 98.0891 120.361 97.9695L126.385 123.031C126.98 122.595 127.433 121.993 127.686 121.3C127.939 120.607 127.981 119.855 127.807 119.138Z" fill="#DCE3F1"/>
<path d="M111.928 105.375C111.807 104.865 111.578 104.387 111.258 103.971C110.637 105.578 110.523 107.336 110.931 109.01L112.909 117.241C113.36 119.179 114.436 120.915 115.97 122.182L111.928 105.375Z" fill="#3F3D56"/>
</g>
<defs>
<clipPath id="clip0_28_101">
<rect width="487.544" height="424.657" fill="white" transform="translate(0.455811 0.149963)"/>
</clipPath>
</defs>
</svg>
