<svg width="50" height="50" viewBox="0 0 50 50" fill="none" xmlns="http://www.w3.org/2000/svg">
<g clip-path="url(#clip0_28_11)">
<path d="M49.9971 37.3611C49.9971 37.6348 49.9888 38.2286 49.9723 38.6872C49.9321 39.8094 49.8431 41.2575 49.7086 41.9172C49.5064 42.9087 49.2012 43.8446 48.8032 44.6235C48.3324 45.545 47.7318 46.3704 47.0181 47.0827C46.306 47.7937 45.4814 48.3919 44.5613 48.8608C43.7783 49.2599 42.8366 49.5652 41.8395 49.7666C41.1862 49.8984 39.749 49.9857 38.634 50.0253C38.1749 50.0417 37.5811 50.05 37.3083 50.05L12.6879 50.046C12.4141 50.046 11.8205 50.0376 11.3618 50.0212C10.2396 49.981 8.79155 49.892 8.13174 49.7575C7.14023 49.5553 6.20435 49.2501 5.42544 48.8521C4.50395 48.3812 3.67861 47.7807 2.96626 47.067C2.25532 46.3549 1.65708 45.5303 1.18818 44.6103C0.789062 43.8272 0.483691 42.8855 0.282373 41.8884C0.150537 41.2352 0.0632813 39.798 0.023584 38.6829C0.00727539 38.2238 -0.000976562 37.63 -0.000976562 37.3573L0.00292969 12.7368C0.00292969 12.463 0.0112793 11.8693 0.0277344 11.4106C0.0680176 10.2884 0.156934 8.84038 0.291455 8.18062C0.493652 7.18911 0.798828 6.25322 1.19683 5.47427C1.66768 4.55283 2.26831 3.72744 2.98193 3.01509C3.69404 2.3042 4.51865 1.70591 5.43872 1.23696C6.22178 0.837939 7.16353 0.532568 8.16064 0.33125C8.81382 0.199365 10.2511 0.112109 11.3661 0.0724609C11.8252 0.0561035 12.4191 0.0478516 12.6917 0.0478516L37.3122 0.0518066C37.586 0.0518066 38.1797 0.0601563 38.6383 0.0766113C39.7605 0.116895 41.2085 0.205811 41.8684 0.340332C42.8599 0.542529 43.7958 0.847705 44.5747 1.2457C45.4961 1.71655 46.3215 2.31719 47.0338 3.03081C47.7447 3.74292 48.343 4.56748 48.8119 5.4876C49.211 6.27065 49.5164 7.21235 49.7177 8.20947C49.8496 8.8627 49.9368 10.2999 49.9765 11.415C49.9929 11.8741 50.0011 12.4679 50.0011 12.7407L49.9971 37.3611Z" fill="#3E77E7"/>
<path d="M38.2472 11.8773C34.862 8.48931 30.36 6.62251 25.5634 6.62061C15.6805 6.62061 7.63702 14.661 7.63307 24.544C7.6318 27.7032 8.45743 30.7869 10.0265 33.5051L7.48273 42.7936L16.9879 40.3011C19.6068 41.729 22.5553 42.4815 25.5563 42.4828H25.5637C35.4456 42.4828 43.4899 34.4414 43.4939 24.5583C43.4958 19.7689 41.6325 15.2654 38.2472 11.8773ZM25.5637 39.4555H25.5576C22.8834 39.4545 20.2606 38.7363 17.9724 37.3789L17.4282 37.0561L11.7877 38.5352L13.2933 33.0375L12.9388 32.4739C11.447 30.1019 10.6591 27.3602 10.6603 24.5452C10.6635 16.3309 17.349 9.64795 25.5694 9.64795C29.55 9.64946 33.2918 11.2012 36.1055 14.0172C38.9192 16.8332 40.4679 20.5764 40.4665 24.5572C40.4632 32.7722 33.7778 39.4555 25.5637 39.4555ZM33.7382 28.2976C33.2901 28.0734 31.0876 26.9898 30.6769 26.8404C30.2662 26.6909 29.9676 26.6162 29.6688 27.0646C29.3702 27.5129 28.5116 28.5218 28.2502 28.8207C27.9889 29.1196 27.7276 29.157 27.2796 28.9328C26.8315 28.7086 25.388 28.2356 23.6767 26.7098C22.3449 25.5224 21.4457 24.0556 21.1844 23.6071C20.9231 23.1587 21.1566 22.9164 21.3809 22.6931C21.5824 22.4924 21.8289 22.17 22.0529 21.9084C22.2769 21.647 22.3516 21.4601 22.5009 21.1612C22.6503 20.8623 22.5756 20.6007 22.4635 20.3765C22.3516 20.1523 21.4555 17.9479 21.0822 17.0511C20.7186 16.1778 20.3491 16.2959 20.0741 16.2822C19.8131 16.2692 19.5141 16.2665 19.2155 16.2665C18.9169 16.2665 18.4315 16.3786 18.0208 16.827C17.6102 17.2753 16.4528 18.3589 16.4528 20.5633C16.4528 22.7678 18.0581 24.8975 18.2821 25.1964C18.5062 25.4953 21.4413 30.0192 25.9355 31.9592C27.0045 32.4206 27.8389 32.6962 28.4896 32.9026C29.5629 33.2434 30.5395 33.1954 31.3115 33.0801C32.1723 32.9515 33.9621 31.9966 34.3356 30.9504C34.7089 29.9042 34.7089 29.0075 34.5969 28.8207C34.4849 28.6339 34.1862 28.5218 33.7382 28.2976Z" fill="#141414"/>
</g>
<defs>
<clipPath id="clip0_28_11">
<rect width="50" height="50" fill="white"/>
</clipPath>
</defs>
</svg>
